<svg width="20" height="20" viewBox="0 0 20 20" fill="none" xmlns="http://www.w3.org/2000/svg">
<path d="M19.7256 18.9889L15.2097 14.4538C16.5957 12.8665 17.3604 10.8581 17.3604 8.72728C17.3604 6.40138 16.4584 4.21493 14.8209 2.57041C13.1834 0.925893 11.0062 0.0200195 8.69023 0.0200195C6.37422 0.0200195 4.19708 0.925893 2.55956 2.57041C0.922038 4.21493 0.0200195 6.40138 0.0200195 8.72728C0.0200195 11.0532 0.922038 13.2396 2.55956 14.8842C4.19708 16.5287 6.37422 17.4345 8.69023 17.4345C10.812 17.4345 12.8118 16.6665 14.3923 15.2746L18.9082 19.8098C19.0211 19.9231 19.169 19.9798 19.3169 19.9798C19.4648 19.9798 19.6127 19.9231 19.7256 19.8098C19.9513 19.583 19.9513 19.2157 19.7256 18.9889ZM3.3769 14.0633C1.95783 12.6379 1.17605 10.7428 1.17605 8.72728C1.17605 6.71175 1.95783 4.81667 3.3769 3.39125C4.79626 1.96612 6.68327 1.18099 8.69023 1.18099C10.6972 1.18099 12.5842 1.96612 14.0036 3.39125C15.4226 4.81667 16.2044 6.71175 16.2044 8.72728C16.2044 10.7428 15.4226 12.6379 14.0036 14.0633C12.5842 15.4885 10.6972 16.2736 8.69023 16.2736C6.68327 16.2736 4.79626 15.4885 3.3769 14.0633Z" fill="black"/>
</svg>
