<svg width="1440" height="1264" viewBox="0 0 1440 1264" fill="none" xmlns="http://www.w3.org/2000/svg">
<path opacity="0.2" fill-rule="evenodd" clip-rule="evenodd" d="M1518.14 224.457C1502.14 281.832 1467.22 333.809 1420.11 371.21L1419.8 370.818L1420.11 371.21C1401.57 385.923 1381.32 398.372 1360.61 410.323C1354.18 414.033 1347.71 417.695 1341.23 421.362C1326.82 429.508 1312.38 437.678 1298.28 446.459C1256.61 472.523 1216.93 505.057 1200.35 549.289L1199.9 549.124L1200.35 549.29C1185.86 587.877 1190.79 631.523 1195.59 673.912C1195.71 675.033 1195.84 676.153 1195.97 677.272C1201.41 725.586 1199.8 775.249 1184.08 820.584C1167.43 868.588 1126.04 910.577 1077.31 918.927C1028.14 927.358 978.252 904.627 935.581 873.469L935.581 873.469C910.03 854.766 887.8 833.141 865.543 811.3L863.438 809.234C841.87 788.064 820.177 766.771 795.283 747.765C748.064 711.725 691.753 683.643 632.098 683.308C592.293 683.084 554.123 695.052 515.763 707.809C513.464 708.574 511.164 709.341 508.863 710.109C472.8 722.142 436.476 734.263 398.487 736.906C326.949 742.03 255.925 712.553 215.189 657.965L215.58 657.674L215.189 657.965C198.978 636.194 187.732 611.291 176.713 586.066C176.03 584.502 175.347 582.936 174.664 581.369C164.332 557.666 153.941 533.83 139.57 512.092C100.429 452.879 29.7702 414.243 -42.7355 414.437C-146.264 414.989 -234.836 487.597 -307.557 560.665L-308.265 559.96C-235.549 486.896 -146.716 413.991 -42.7408 413.437L-42.7396 413.437C30.1066 413.242 101.08 452.049 140.405 511.54C154.826 533.355 165.249 557.267 175.574 580.954C176.26 582.526 176.944 584.097 177.63 585.666C188.652 610.898 199.857 635.701 215.991 657.367C256.499 711.651 327.178 741.011 398.417 735.908L398.418 735.908C436.275 733.275 472.485 721.193 508.576 709.15C510.867 708.386 513.157 707.622 515.448 706.86C553.795 694.108 592.112 682.083 632.103 682.308C692.064 682.644 748.584 710.864 795.89 746.97C820.834 766.015 842.566 787.346 864.123 808.506C864.83 809.199 865.537 809.893 866.243 810.586C888.505 832.432 910.687 854.008 936.171 872.661C978.771 903.767 1028.37 926.303 1077.14 917.942C1125.44 909.667 1166.58 868 1183.13 820.257C1198.78 775.111 1200.41 725.611 1194.97 677.384C1194.84 676.231 1194.71 675.076 1194.58 673.92C1189.8 631.615 1184.84 587.755 1199.41 548.938C1216.12 504.38 1256.05 471.698 1297.75 445.611L1297.75 445.61C1311.87 436.817 1326.34 428.63 1340.76 420.478C1347.23 416.815 1353.7 413.158 1360.11 409.456C1380.81 397.513 1401.01 385.093 1419.49 370.427C1466.44 333.153 1501.24 281.355 1517.18 224.188L1518.14 224.457Z" fill="#007163"/>
<path opacity="0.2" fill-rule="evenodd" clip-rule="evenodd" d="M1533.73 236.895C1515.81 295.412 1478.42 348.22 1428.69 385.252C1409.23 399.746 1388.14 411.762 1366.76 423.333C1362.1 425.854 1357.43 428.354 1352.76 430.854C1335.99 439.83 1319.23 448.802 1303.09 458.755C1261.83 484.197 1223 518.703 1209.23 564.304L1208.75 564.159L1209.23 564.304C1203.23 584.186 1202.38 604.703 1203.56 625.418C1204.34 638.981 1205.98 652.599 1207.62 666.176C1208.49 673.353 1209.35 680.518 1210.09 687.658C1215.01 735.497 1213.53 785.488 1194.03 829.998C1174.52 874.526 1134.19 912.711 1085.37 919.819C1035.52 927.074 987.247 901.895 947.48 872.458C923.154 854.459 900.396 834.565 877.657 814.688L877.179 814.27C854.275 794.25 831.38 774.259 806.883 756.219C757.89 720.139 699.889 691.469 638.36 692.482C597.554 693.151 558.688 706.647 519.753 720.676C518.243 721.22 516.734 721.765 515.224 722.309C477.816 735.807 440.273 749.354 400.93 751.922C329.675 756.571 257.589 721.537 218.663 663.336C203.141 640.134 192.874 614.151 182.771 588.133L181.895 585.876C172.082 560.594 162.286 535.354 147.834 512.567C109.404 451.982 37.506 413.498 -35.6601 414.365L-35.6661 413.865L-35.6602 414.365C-141.394 415.613 -230.654 490.603 -306.208 564.434L-306.906 563.719C-231.374 489.908 -141.852 414.618 -35.672 413.365C37.8324 412.495 110.058 451.146 148.678 512.032C163.185 534.903 173.012 560.225 182.814 585.482L183.703 587.771C193.811 613.801 204.042 639.683 219.495 662.781C258.216 720.677 329.957 755.55 400.865 750.924C440.063 748.366 477.485 734.863 514.931 721.352C516.425 720.813 517.919 720.274 519.414 719.735C558.331 705.713 597.347 692.154 638.344 691.482C700.189 690.464 758.405 719.276 807.476 755.414C832.012 773.483 854.938 793.501 877.837 813.517L878.3 813.922C901.049 833.808 923.782 853.679 948.075 871.655C987.797 901.057 1035.79 926.024 1085.23 918.829C1133.62 911.783 1173.71 873.895 1193.11 829.597C1212.52 785.316 1214.01 735.526 1209.09 687.76C1208.36 680.658 1207.5 673.511 1206.63 666.342C1204.99 652.743 1203.34 639.067 1202.57 625.475C1201.38 604.701 1202.23 584.053 1208.27 564.015L1208.72 564.151L1208.27 564.015C1222.15 518.059 1261.24 483.387 1302.56 457.903C1318.73 447.933 1335.53 438.941 1352.31 429.964C1356.97 427.466 1361.64 424.969 1366.29 422.453C1387.65 410.887 1408.69 398.899 1428.09 384.45C1477.66 347.543 1514.92 294.913 1532.78 236.602L1533.73 236.895Z" fill="#007163"/>
</svg>
