<svg width="154" height="65" viewBox="0 0 154 65" fill="none" xmlns="http://www.w3.org/2000/svg">
<g clip-path="url(#clip0_18_416)">
<path d="M13.2937 61.4297C13.2878 61.4297 13.2878 61.4386 13.2937 61.4386C13.2996 61.4386 13.2996 61.4297 13.2937 61.4297Z" fill="#534741"/>
<path d="M66.6612 23.206L64.9138 23.2887C65.7313 26.0954 66.3458 29.5472 66.3458 32.5C66.3458 36.6631 65.5338 40.7022 63.9345 44.5042C62.3901 48.1765 60.1764 51.474 57.3592 54.3054C54.542 57.1369 51.2584 59.3619 47.6073 60.9141C43.8245 62.5214 39.8058 63.3375 35.6636 63.3375C31.5215 63.3375 27.5027 62.5214 23.7199 60.9141C20.066 59.3619 16.7852 57.1369 13.968 54.3054C11.1508 51.474 8.93708 48.1738 7.39269 44.5042C5.79343 40.7022 4.98146 36.6631 4.98146 32.5C4.98146 28.3369 5.79343 24.2978 7.39269 20.4958C8.93708 16.8235 11.1508 13.526 13.968 10.6946C16.788 7.86032 20.0688 5.63815 23.7227 4.08318C27.5055 2.47582 31.5242 1.65974 35.6664 1.65974C41.9756 1.65974 48.038 3.57037 53.1924 7.18209C57.8996 10.4795 61.5535 14.968 63.8193 20.2146H62.1542H62.1268H59.1148H52.5203H51.3901V21.8771H52.5203H59.9186H62.1268H62.1542H66.2607L65.8246 20.7467C63.4929 14.7033 59.4522 9.54212 54.1387 5.82011C48.7018 2.01264 42.313 0 35.6636 0C31.2993 0 27.0638 0.860197 23.078 2.55302C19.2266 4.1907 15.7703 6.53419 12.7994 9.52006C9.83135 12.5032 7.49967 15.9798 5.87024 19.8479C4.1832 23.8539 3.33008 28.1108 3.33008 32.4972C3.33008 36.8837 4.18594 41.1406 5.87024 45.1465C7.49967 49.0174 9.83135 52.4913 12.7994 55.4772C15.7675 58.4603 19.2266 60.8038 23.078 62.4415C27.0638 64.137 31.2993 64.9945 35.6636 64.9945C40.028 64.9945 44.2634 64.1343 48.2492 62.4415C52.1006 60.8038 55.5569 58.4603 58.5278 55.4772C61.4959 52.4941 63.8276 49.0174 65.457 45.1465C67.144 41.1406 67.9971 36.8837 67.9971 32.4972C67.9999 29.3901 67.5226 26.1643 66.6612 23.206Z" fill="#007163"/>
<path d="M50.9676 18.9905H45.2207C44.9903 18.9905 44.801 19.178 44.801 19.4123V22.4726C44.801 22.7042 44.9903 22.8944 45.2207 22.8944H50.9676C51.1212 22.8944 51.2557 22.809 51.3297 22.6849C51.3544 22.6436 51.3709 22.5994 51.3818 22.5498C51.3873 22.525 51.3901 22.4974 51.3901 22.4726V19.4123C51.3901 19.4013 51.3873 19.3902 51.3873 19.3765C51.3681 19.1614 51.1898 18.9905 50.9676 18.9905Z" fill="#A67C52"/>
<path d="M58.4648 19.065C52.1144 8.35391 38.6785 2.83707 25.6924 7.89072C16.9006 11.3122 9.34044 21.9296 8.96737 31.3973C8.16911 51.6505 28.4849 65.5625 47.1713 56.9137C55.173 53.2082 60.7691 45.6291 61.9514 36.8534C62.6371 31.7695 61.9706 27.0411 60.3301 22.878H52.5177V23.2337C52.5177 23.4625 52.3339 23.65 52.1034 23.65H44.2059C43.9782 23.65 43.7917 23.4652 43.7917 23.2337V18.5219C43.7917 18.293 43.9755 18.1056 44.2059 18.1056H52.1034C52.3311 18.1056 52.5177 18.2903 52.5177 18.5219V19.065H58.4648ZM21.7806 49.7178C18.028 46.6961 15.6716 42.3841 15.1449 37.5813L17.1475 37.3607C17.6138 41.6259 19.7068 45.4554 23.0397 48.138C26.3727 50.8234 30.545 52.042 34.7887 51.5705L35.0081 53.5832C30.2323 54.1125 25.5333 52.7395 21.7806 49.7178ZM20.3981 36.3765L22.8011 36.109C23.4677 42.1938 28.9183 46.5858 34.9725 45.9158L35.2385 48.331C27.8677 49.1498 21.2101 43.7846 20.3981 36.3765ZM43.9535 34.4107C43.5503 36.8452 42.0498 38.9708 39.8964 40.1564C33.4116 43.7323 25.9996 38.447 27.2148 31.1133C27.6181 28.6788 29.1186 26.5531 31.2719 25.3676C37.7595 21.7917 45.1715 27.077 43.9535 34.4107Z" fill="#1A2535"/>
<path d="M3.6483 50.0789C3.62636 49.9162 3.60441 49.7536 3.58247 49.5909C3.49468 49.2794 3.33833 49.0119 3.11339 48.7831C2.98994 48.6866 2.8665 48.5929 2.74306 48.4964C2.45777 48.3309 2.15328 48.2482 1.8241 48.2455C1.57448 48.2372 1.33857 48.2896 1.12186 48.4026C0.896919 48.4771 0.699413 48.6039 0.534823 48.7803C0.356519 48.9458 0.230334 49.1443 0.159012 49.3703C0.0437992 49.5882 -0.0083207 49.8253 0.00265191 50.0762C0.0245971 50.2388 0.0465424 50.4015 0.0684876 50.5641C0.156268 50.8757 0.312628 51.1431 0.537567 51.372C0.661008 51.4685 0.78445 51.5622 0.907892 51.6587C1.19318 51.8241 1.49767 51.9068 1.82685 51.9096C2.07922 51.9179 2.31239 51.8655 2.52909 51.7524C2.75403 51.678 2.95154 51.5512 3.11613 51.3747C3.29443 51.2093 3.42062 51.0108 3.49194 50.7847C3.60441 50.5669 3.65653 50.3326 3.6483 50.0789Z" fill="#007163"/>
</g>
<path d="M86.096 26.2161C84.976 26.2161 84.04 25.9761 83.288 25.4961C82.552 25.0161 81.992 24.3521 81.608 23.5041C81.224 22.6561 81 21.6721 80.936 20.5521L83.336 19.9041C83.384 20.5921 83.488 21.2561 83.648 21.8961C83.824 22.5361 84.104 23.0641 84.488 23.4801C84.872 23.8801 85.408 24.0801 86.096 24.0801C86.8 24.0801 87.328 23.8881 87.68 23.5041C88.048 23.1041 88.232 22.5361 88.232 21.8001C88.232 20.9201 88.032 20.2161 87.632 19.6881C87.232 19.1441 86.728 18.6001 86.12 18.0561L82.856 15.1761C82.216 14.6161 81.744 14.0081 81.44 13.3521C81.136 12.6801 80.984 11.8561 80.984 10.8801C80.984 9.45609 81.392 8.35209 82.208 7.56809C83.024 6.78409 84.136 6.39209 85.544 6.39209C86.312 6.39209 86.984 6.49609 87.56 6.70409C88.152 6.89609 88.64 7.20009 89.024 7.61609C89.424 8.03209 89.736 8.56009 89.96 9.20009C90.2 9.82409 90.36 10.5601 90.44 11.4081L88.136 12.0321C88.088 11.3921 87.992 10.8081 87.848 10.2801C87.704 9.73609 87.448 9.30409 87.08 8.98409C86.728 8.64809 86.216 8.48009 85.544 8.48009C84.872 8.48009 84.344 8.66409 83.96 9.03209C83.592 9.38409 83.408 9.91209 83.408 10.6161C83.408 11.2081 83.504 11.6961 83.696 12.0801C83.904 12.4641 84.232 12.8561 84.68 13.2561L87.968 16.1361C88.704 16.7761 89.352 17.5441 89.912 18.4401C90.472 19.3201 90.752 20.3681 90.752 21.5841C90.752 22.5441 90.552 23.3761 90.152 24.0801C89.752 24.7681 89.2 25.2961 88.496 25.6641C87.808 26.0321 87.008 26.2161 86.096 26.2161Z" fill="black"/>
<path d="M92.8558 26.0001V6.56009H100.392V8.57609H95.5678V15.0081H99.4798V16.9281H95.5678V24.0561H100.44V26.0001H92.8558Z" fill="black"/>
<path d="M107.213 26.2161C106.093 26.2161 105.157 25.9761 104.405 25.4961C103.669 25.0161 103.109 24.3521 102.725 23.5041C102.341 22.6561 102.117 21.6721 102.053 20.5521L104.453 19.9041C104.501 20.5921 104.605 21.2561 104.765 21.8961C104.941 22.5361 105.221 23.0641 105.605 23.4801C105.989 23.8801 106.525 24.0801 107.213 24.0801C107.917 24.0801 108.445 23.8881 108.797 23.5041C109.165 23.1041 109.349 22.5361 109.349 21.8001C109.349 20.9201 109.149 20.2161 108.749 19.6881C108.349 19.1441 107.845 18.6001 107.237 18.0561L103.973 15.1761C103.333 14.6161 102.861 14.0081 102.557 13.3521C102.253 12.6801 102.101 11.8561 102.101 10.8801C102.101 9.45609 102.509 8.35209 103.325 7.56809C104.141 6.78409 105.253 6.39209 106.661 6.39209C107.429 6.39209 108.101 6.49609 108.677 6.70409C109.269 6.89609 109.757 7.20009 110.141 7.61609C110.541 8.03209 110.853 8.56009 111.077 9.20009C111.317 9.82409 111.477 10.5601 111.557 11.4081L109.253 12.0321C109.205 11.3921 109.109 10.8081 108.965 10.2801C108.821 9.73609 108.565 9.30409 108.197 8.98409C107.845 8.64809 107.333 8.48009 106.661 8.48009C105.989 8.48009 105.461 8.66409 105.077 9.03209C104.709 9.38409 104.525 9.91209 104.525 10.6161C104.525 11.2081 104.621 11.6961 104.813 12.0801C105.021 12.4641 105.349 12.8561 105.797 13.2561L109.085 16.1361C109.821 16.7761 110.469 17.5441 111.029 18.4401C111.589 19.3201 111.869 20.3681 111.869 21.5841C111.869 22.5441 111.669 23.3761 111.269 24.0801C110.869 24.7681 110.317 25.2961 109.613 25.6641C108.925 26.0321 108.125 26.2161 107.213 26.2161Z" fill="black"/>
<path d="M118.557 26.2161C117.437 26.2161 116.501 25.9761 115.749 25.4961C115.013 25.0161 114.453 24.3521 114.069 23.5041C113.685 22.6561 113.461 21.6721 113.397 20.5521L115.797 19.9041C115.845 20.5921 115.949 21.2561 116.109 21.8961C116.285 22.5361 116.565 23.0641 116.949 23.4801C117.333 23.8801 117.869 24.0801 118.557 24.0801C119.261 24.0801 119.789 23.8881 120.141 23.5041C120.509 23.1041 120.693 22.5361 120.693 21.8001C120.693 20.9201 120.493 20.2161 120.093 19.6881C119.693 19.1441 119.189 18.6001 118.581 18.0561L115.317 15.1761C114.677 14.6161 114.205 14.0081 113.901 13.3521C113.597 12.6801 113.445 11.8561 113.445 10.8801C113.445 9.45609 113.853 8.35209 114.669 7.56809C115.485 6.78409 116.597 6.39209 118.005 6.39209C118.773 6.39209 119.445 6.49609 120.021 6.70409C120.613 6.89609 121.101 7.20009 121.485 7.61609C121.885 8.03209 122.197 8.56009 122.421 9.20009C122.661 9.82409 122.821 10.5601 122.901 11.4081L120.597 12.0321C120.549 11.3921 120.453 10.8081 120.309 10.2801C120.165 9.73609 119.909 9.30409 119.541 8.98409C119.189 8.64809 118.677 8.48009 118.005 8.48009C117.333 8.48009 116.805 8.66409 116.421 9.03209C116.053 9.38409 115.869 9.91209 115.869 10.6161C115.869 11.2081 115.965 11.6961 116.157 12.0801C116.365 12.4641 116.693 12.8561 117.141 13.2561L120.429 16.1361C121.165 16.7761 121.813 17.5441 122.373 18.4401C122.933 19.3201 123.213 20.3681 123.213 21.5841C123.213 22.5441 123.013 23.3761 122.613 24.0801C122.213 24.7681 121.661 25.2961 120.957 25.6641C120.269 26.0321 119.469 26.2161 118.557 26.2161Z" fill="black"/>
<path d="M125.461 26.0001V6.56009H128.125V26.0001H125.461Z" fill="black"/>
<path d="M136.238 26.2161C134.926 26.2161 133.878 25.9601 133.094 25.4481C132.31 24.9361 131.75 24.2081 131.414 23.2641C131.078 22.3041 130.91 21.1841 130.91 19.9041V12.5361C130.91 11.2561 131.078 10.1601 131.414 9.24809C131.766 8.32009 132.326 7.61609 133.094 7.13609C133.878 6.64009 134.926 6.39209 136.238 6.39209C137.55 6.39209 138.59 6.64009 139.358 7.13609C140.126 7.63209 140.678 8.33609 141.014 9.24809C141.366 10.1601 141.542 11.2561 141.542 12.5361V19.9281C141.542 21.1921 141.366 22.2961 141.014 23.2401C140.678 24.1841 140.126 24.9201 139.358 25.4481C138.59 25.9601 137.55 26.2161 136.238 26.2161ZM136.238 24.0801C136.958 24.0801 137.502 23.9361 137.87 23.6481C138.238 23.3441 138.486 22.9281 138.614 22.4001C138.742 21.8561 138.806 21.2241 138.806 20.5041V11.9841C138.806 11.2641 138.742 10.6481 138.614 10.1361C138.486 9.60809 138.238 9.20809 137.87 8.93609C137.502 8.64809 136.958 8.50409 136.238 8.50409C135.518 8.50409 134.966 8.64809 134.582 8.93609C134.214 9.20809 133.966 9.60809 133.838 10.1361C133.71 10.6481 133.646 11.2641 133.646 11.9841V20.5041C133.646 21.2241 133.71 21.8561 133.838 22.4001C133.966 22.9281 134.214 23.3441 134.582 23.6481C134.966 23.9361 135.518 24.0801 136.238 24.0801Z" fill="black"/>
<path d="M144.207 26.0001V6.56009H146.055L151.575 19.4721V6.56009H153.831V26.0001H152.103L146.511 12.7281V26.0001H144.207Z" fill="black"/>
<path d="M111.214 62.1921C110.67 62.1921 110.19 62.0401 109.774 61.7361C109.358 61.4161 109.03 61.0161 108.79 60.5361C108.55 60.0401 108.43 59.5201 108.43 58.9761C108.43 58.1121 108.574 57.3841 108.862 56.7921C109.15 56.2001 109.542 55.7041 110.038 55.3041C110.55 54.8881 111.134 54.5281 111.79 54.2241C112.462 53.9201 113.166 53.6241 113.902 53.3361V52.3521C113.902 51.7921 113.87 51.3281 113.806 50.9601C113.742 50.5921 113.606 50.3201 113.398 50.1441C113.206 49.9521 112.91 49.8561 112.51 49.8561C112.158 49.8561 111.87 49.9361 111.646 50.0961C111.438 50.2561 111.286 50.4881 111.19 50.7921C111.094 51.0801 111.046 51.4241 111.046 51.8241V52.5201L108.502 52.4241C108.534 50.8881 108.886 49.7601 109.558 49.0401C110.23 48.3041 111.27 47.9361 112.678 47.9361C114.054 47.9361 115.03 48.3121 115.606 49.0641C116.182 49.8161 116.47 50.9041 116.47 52.3281V58.6641C116.47 59.0961 116.478 59.5121 116.494 59.9121C116.526 60.3121 116.558 60.6881 116.59 61.0401C116.638 61.3761 116.678 61.6961 116.71 62.0001H114.358C114.31 61.7441 114.246 61.4241 114.166 61.0401C114.102 60.6401 114.054 60.2801 114.022 59.9601C113.862 60.5041 113.55 61.0161 113.086 61.4961C112.638 61.9601 112.014 62.1921 111.214 62.1921ZM112.222 59.9841C112.478 59.9841 112.718 59.9121 112.942 59.7681C113.166 59.6241 113.366 59.4641 113.542 59.2881C113.718 59.0961 113.838 58.9441 113.902 58.8321V54.8961C113.502 55.1201 113.126 55.3441 112.774 55.5681C112.422 55.7921 112.11 56.0321 111.838 56.2881C111.582 56.5281 111.374 56.8081 111.214 57.1281C111.07 57.4321 110.998 57.7841 110.998 58.1841C110.998 58.7441 111.102 59.1841 111.31 59.5041C111.518 59.8241 111.822 59.9841 112.222 59.9841Z" fill="black"/>
<path d="M119.009 62.0001V48.1281H121.577V50.0961C122.089 49.2481 122.601 48.6801 123.113 48.3921C123.625 48.1041 124.137 47.9601 124.649 47.9601C124.713 47.9601 124.769 47.9601 124.817 47.9601C124.881 47.9601 124.961 47.9681 125.057 47.9841V50.8161C124.865 50.7361 124.641 50.6721 124.385 50.6241C124.145 50.5601 123.897 50.5281 123.641 50.5281C123.241 50.5281 122.873 50.6241 122.537 50.8161C122.217 50.9921 121.897 51.3441 121.577 51.8721V62.0001H119.009Z" fill="black"/>
<path d="M130.344 62.1921C129.624 62.1921 129.04 62.0561 128.592 61.7841C128.16 61.5121 127.84 61.1281 127.632 60.6321C127.44 60.1361 127.344 59.5521 127.344 58.8801V49.8321H125.88V48.1281H127.344V44.0721H129.912V48.1281H132.144V49.8321H129.912V58.7121C129.912 59.2561 130 59.6481 130.176 59.8881C130.352 60.1121 130.688 60.2241 131.184 60.2241C131.312 60.2241 131.456 60.2161 131.616 60.2001C131.792 60.1841 131.96 60.1681 132.12 60.1521V62.0481C131.8 62.0961 131.504 62.1281 131.232 62.1441C130.96 62.1761 130.664 62.1921 130.344 62.1921Z" fill="black"/>
<path d="M134.198 62.0001V48.1281H136.766V62.0001H134.198ZM134.198 46.0641V43.3761H136.766V46.0641H134.198Z" fill="black"/>
<path d="M142.731 62.1921C141.595 62.1921 140.683 61.8401 139.995 61.1361C139.307 60.4161 138.915 59.4721 138.819 58.3041L140.955 57.6561C141.083 58.5361 141.299 59.2001 141.603 59.6481C141.907 60.0801 142.355 60.2961 142.947 60.2961C143.411 60.2961 143.763 60.1681 144.003 59.9121C144.243 59.6401 144.363 59.2801 144.363 58.8321C144.363 58.4321 144.275 58.0721 144.099 57.7521C143.923 57.4321 143.635 57.1041 143.235 56.7681L140.859 54.7281C140.379 54.3121 139.971 53.8481 139.635 53.3361C139.315 52.8241 139.155 52.1601 139.155 51.3441C139.155 50.6081 139.299 49.9921 139.587 49.4961C139.891 48.9841 140.307 48.6001 140.835 48.3441C141.379 48.0721 142.011 47.9361 142.731 47.9361C143.835 47.9361 144.675 48.2961 145.251 49.0161C145.843 49.7201 146.179 50.5761 146.259 51.5841L144.531 52.2321C144.467 51.7521 144.371 51.3361 144.243 50.9841C144.115 50.6161 143.939 50.3361 143.715 50.1441C143.491 49.9361 143.195 49.8321 142.827 49.8321C142.411 49.8321 142.075 49.9761 141.819 50.2641C141.579 50.5361 141.459 50.8641 141.459 51.2481C141.459 51.4881 141.507 51.7281 141.603 51.9681C141.715 52.1921 141.899 52.4161 142.155 52.6401L144.603 54.8961C144.939 55.2001 145.251 55.5281 145.539 55.8801C145.843 56.2321 146.091 56.6321 146.283 57.0801C146.475 57.5281 146.571 58.0481 146.571 58.6401C146.571 59.4241 146.411 60.0801 146.091 60.6081C145.771 61.1361 145.323 61.5361 144.747 61.8081C144.171 62.0641 143.499 62.1921 142.731 62.1921Z" fill="black"/>
<path d="M152.187 62.1921C151.467 62.1921 150.883 62.0561 150.435 61.7841C150.003 61.5121 149.683 61.1281 149.475 60.6321C149.283 60.1361 149.187 59.5521 149.187 58.8801V49.8321H147.723V48.1281H149.187V44.0721H151.755V48.1281H153.987V49.8321H151.755V58.7121C151.755 59.2561 151.843 59.6481 152.019 59.8881C152.195 60.1121 152.531 60.2241 153.027 60.2241C153.155 60.2241 153.299 60.2161 153.459 60.2001C153.635 60.1841 153.803 60.1681 153.963 60.1521V62.0481C153.643 62.0961 153.347 62.1281 153.075 62.1441C152.803 62.1761 152.507 62.1921 152.187 62.1921Z" fill="black"/>
<defs>
<clipPath id="clip0_18_416">
<rect width="68" height="65" fill="white"/>
</clipPath>
</defs>
</svg>
